<?xml version="1.0" standalone="no"?>
<!DOCTYPE svg PUBLIC "-//W3C//DTD SVG 20010904//EN"
 "http://www.w3.org/TR/2001/REC-SVG-20010904/DTD/svg10.dtd">
<svg version="1.0" xmlns="http://www.w3.org/2000/svg"
 width="1024.000000pt" height="1024.000000pt" viewBox="0 0 1024.000000 1024.000000"
 preserveAspectRatio="xMidYMid meet">

<g transform="translate(0.000000,1024.000000) scale(0.100000,-0.100000)"
fill="#000000" stroke="none">
<path d="M0 5120 l0 -5120 5120 0 5120 0 0 5120 0 5120 -5120 0 -5120 0 0
-5120z m3463 2665 c51 -21 91 -58 112 -104 l18 -41 844 0 c557 0 851 -3 863
-10 11 -6 109 -122 217 -258 109 -136 200 -249 203 -252 3 -3 49 -60 103 -127
53 -67 101 -124 106 -127 5 -3 33 18 63 47 56 53 84 79 333 312 77 72 177 166
223 211 l84 80 3 67 c2 54 8 76 31 115 62 101 210 133 306 66 48 -33 98 -119
98 -168 0 -160 -163 -261 -316 -196 l-48 21 -45 -44 c-25 -23 -82 -77 -126
-118 -452 -427 -569 -535 -585 -543 -10 -5 -29 -5 -42 -2 -14 5 -141 155 -343
409 l-320 402 -824 0 c-799 0 -824 -1 -835 -19 -48 -82 -119 -125 -205 -126
-185 -1 -282 202 -163 340 62 73 162 100 245 65z m-27 -552 c1 -7 2 -17 3 -23
1 -7 163 -10 464 -10 l464 0 11 -22 c9 -17 13 -265 15 -970 l2 -947 75 54
c221 159 266 192 292 214 l30 24 -4 807 c-2 673 -1 810 11 823 17 21 158 24
182 5 18 -15 102 -113 180 -209 199 -245 702 -839 710 -837 4 2 39 32 76 68
37 36 149 142 248 235 99 93 225 213 281 267 81 79 107 98 131 98 44 0 53 -16
53 -97 0 -71 -9 -90 -28 -57 -13 23 -22 18 -94 -51 -35 -33 -151 -143 -258
-245 -107 -101 -239 -225 -292 -277 -56 -54 -105 -93 -116 -93 -42 0 -44 2
-193 185 -9 11 -43 52 -76 90 -33 39 -130 156 -217 260 -87 105 -190 228 -230
275 -39 47 -103 123 -141 170 -39 47 -76 92 -84 102 -8 9 -18 15 -23 12 -4 -3
-8 -362 -8 -798 0 -742 -1 -795 -17 -813 -10 -11 -58 -49 -108 -85 -49 -36
-157 -113 -238 -172 -82 -59 -161 -115 -176 -123 -35 -21 -77 -11 -85 19 -3
13 -6 463 -6 1001 l0 977 -464 0 c-409 0 -466 2 -480 16 -11 11 -16 35 -16 80
l0 65 63 -3 c40 -2 62 -7 63 -15z m3494 -1052 c0 -959 -2 -1071 -16 -1085 -13
-14 -54 -16 -289 -16 -272 0 -274 0 -289 22 -14 20 -16 88 -16 547 l0 524 57
53 c32 29 60 51 62 48 3 -2 6 -242 7 -532 1 -290 2 -530 3 -534 1 -5 82 -8
181 -8 l180 0 0 1018 c0 560 3 1022 7 1025 3 4 30 7 60 7 l53 0 0 -1069z
m-1920 -1776 l0 -55 -110 -1 c-60 -1 -116 -2 -122 -3 -10 -1 -14 -75 -16 -328
l-2 -328 -60 0 -60 0 0 330 0 330 -120 0 -120 0 0 55 0 55 305 0 305 0 0 -55z
m325 -97 c61 -82 123 -166 138 -189 l28 -41 46 63 c25 35 89 121 141 192 l94
127 49 0 c42 0 49 -3 54 -22 3 -13 4 -185 3 -383 l-3 -360 -62 -3 -63 -3 0
272 0 271 -111 -148 c-109 -147 -141 -175 -175 -156 -6 4 -53 63 -103 132 -51
69 -101 136 -111 150 -19 25 -19 23 -20 -247 l0 -273 -60 0 -60 0 0 386 0 385
53 -3 52 -3 110 -147z m1200 -1193 l0 -230 -22 -3 -23 -3 0 236 0 236 23 -3
22 -3 0 -230z m-3728 202 c23 -10 31 -31 15 -41 -5 -3 -37 0 -73 6 -56 10 -69
9 -102 -7 -33 -15 -37 -21 -37 -55 0 -47 20 -66 85 -80 113 -24 155 -61 155
-138 0 -77 -61 -122 -162 -121 -85 0 -132 17 -136 48 -3 20 0 23 20 18 131
-30 132 -30 170 -14 43 18 64 53 54 91 -7 30 -37 46 -129 70 -91 24 -121 59
-114 129 5 56 26 82 83 103 42 15 128 11 171 -9z m4571 -10 c3 -24 0 -27 -27
-27 -26 0 -31 4 -31 24 0 44 53 47 58 3z m-2218 -2 c0 -24 -2 -25 -75 -25
l-75 0 0 -201 0 -200 -22 3 c-23 3 -23 4 -26 201 l-2 197 -75 0 c-73 0 -75 1
-75 25 l0 25 175 0 175 0 0 -25z m-2023 -112 c30 -20 55 -77 51 -120 l-3 -36
-108 2 c-87 2 -108 -1 -113 -13 -9 -24 18 -68 55 -90 30 -17 40 -18 89 -8 44
9 58 9 64 -1 16 -27 -20 -42 -102 -42 -70 0 -81 3 -105 25 -41 38 -55 73 -55
135 0 57 19 114 46 136 45 37 133 43 181 12z m555 -1 c29 -25 37 -78 31 -198
-5 -99 -8 -114 -23 -114 -26 0 -30 20 -30 150 0 108 -2 120 -19 130 -29 15
-62 12 -100 -8 l-33 -18 -1 -124 c-2 -113 -4 -125 -21 -128 -30 -6 -36 16 -36
140 0 152 -15 170 -110 132 l-39 -16 -3 -126 c-3 -123 -4 -127 -25 -130 l-23
-3 0 165 c0 159 1 166 20 166 11 0 20 -7 20 -15 0 -14 3 -14 30 0 42 22 122
20 152 -5 17 -13 28 -16 35 -9 36 36 140 42 175 11z m888 5 c32 -15 60 -71 60
-119 l0 -38 -92 0 c-51 0 -103 -3 -115 -6 -31 -9 -29 -37 5 -75 24 -27 36 -32
78 -33 27 0 61 3 75 7 22 7 27 5 32 -12 12 -48 -159 -57 -209 -10 -36 33 -54
79 -54 139 0 84 39 146 105 163 26 7 83 -1 115 -16z m788 -4 c29 -18 52 -70
52 -118 l0 -35 -109 0 c-61 0 -112 -4 -116 -10 -3 -5 1 -25 9 -45 24 -58 88
-75 177 -49 11 3 18 -3 22 -15 11 -44 -135 -58 -194 -18 -67 44 -89 147 -50
234 34 74 136 102 209 56z m335 10 c4 -2 7 -12 7 -22 0 -17 -7 -18 -62 -14
-59 5 -65 3 -90 -22 -25 -24 -28 -35 -28 -91 0 -53 4 -67 27 -94 26 -31 29
-32 90 -28 59 4 63 3 63 -18 0 -25 -23 -34 -90 -34 -106 0 -166 94 -140 216
14 60 39 92 88 110 33 13 113 11 135 -3z m317 -19 c24 -23 25 -30 28 -165 l4
-141 -24 4 c-22 3 -23 6 -28 131 -4 114 -7 130 -25 144 -24 18 -85 12 -120
-11 -24 -16 -25 -20 -25 -142 0 -124 0 -125 -22 -122 -23 3 -23 6 -26 161 -2
139 -1 158 14 164 10 4 22 0 29 -10 7 -9 15 -14 18 -11 3 3 23 12 44 19 49 17
102 9 133 -21z m331 11 c43 -23 63 -69 64 -145 0 -110 -54 -170 -157 -170 -83
0 -138 68 -138 170 0 84 39 145 105 163 29 8 93 -1 126 -18z m489 2 c14 -7 35
-32 48 -57 19 -37 23 -56 19 -107 -8 -106 -65 -159 -164 -151 -83 7 -133 68
-133 163 0 42 17 100 38 125 37 45 126 58 192 27z m365 9 l30 -1 3 -178 c3
-192 -3 -220 -52 -252 -56 -37 -196 -26 -196 15 0 17 7 18 73 13 64 -5 75 -3
100 17 21 17 27 30 27 60 l0 39 -27 -15 c-34 -17 -103 -18 -138 -2 -78 35 -89
218 -16 282 26 23 84 36 131 28 19 -3 49 -6 65 -6z m418 3 c64 -17 77 -51 77
-200 0 -123 0 -126 -22 -124 -12 1 -24 7 -26 13 -2 8 -12 8 -32 -3 -16 -8 -50
-15 -75 -15 -123 0 -145 157 -27 190 20 5 58 10 85 10 43 0 47 2 47 25 0 14
-10 35 -21 46 -18 18 -30 20 -73 17 -28 -3 -58 -7 -66 -9 -9 -3 -16 4 -18 18
-3 18 3 23 40 31 59 13 67 13 111 1z m-3771 -10 c2 -7 12 -7 31 0 16 6 51 11
79 11 43 0 54 -4 83 -33 60 -60 60 -190 0 -255 -33 -36 -35 -37 -109 -37 l-76
0 0 -62 c0 -61 -1 -63 -25 -63 l-25 0 0 225 c0 215 1 225 19 225 11 0 21 -5
23 -11z m348 -4 c0 -18 8 -18 40 0 14 8 40 14 58 15 25 0 32 -4 32 -20 0 -14
-7 -20 -24 -20 -12 0 -38 -10 -57 -23 l-34 -23 -3 -123 c-3 -120 -3 -122 -25
-119 -22 3 -22 6 -25 166 -2 157 -2 162 18 162 11 0 20 -7 20 -15z m3175 -149
c0 -157 0 -159 -22 -162 l-23 -4 0 166 0 165 23 -3 c22 -3 22 -5 22 -162z"/>
<path d="M3334 7691 c-61 -26 -85 -122 -43 -174 66 -85 205 -33 203 76 -2 72
-92 127 -160 98z"/>
<path d="M6774 7666 c-47 -47 -48 -100 -3 -151 27 -31 37 -35 79 -35 57 0 93
25 110 75 25 75 -30 145 -113 145 -31 0 -46 -7 -73 -34z"/>
<path d="M2996 3148 c-13 -13 -27 -33 -31 -45 -6 -23 -5 -23 84 -23 82 0 91 2
91 19 0 10 -11 30 -25 45 -31 34 -83 35 -119 4z"/>
<path d="M4457 3159 c-15 -9 -47 -59 -47 -74 0 -3 41 -5 90 -5 84 0 90 1 90
20 0 33 -44 70 -82 70 -18 0 -41 -5 -51 -11z"/>
<path d="M5233 3155 c-11 -8 -26 -28 -31 -45 l-11 -30 90 0 c83 0 89 1 89 20
0 55 -87 90 -137 55z"/>
<path d="M6203 3146 c-26 -22 -28 -30 -28 -96 0 -69 1 -73 34 -102 28 -25 40
-29 69 -25 19 4 43 14 53 23 45 40 46 152 3 199 -31 34 -92 35 -131 1z"/>
<path d="M6695 3146 c-45 -45 -42 -158 4 -200 10 -9 34 -19 53 -23 95 -15 148
148 73 223 -33 33 -97 33 -130 0z"/>
<path d="M7046 3147 c-32 -32 -43 -111 -22 -161 20 -49 56 -62 116 -44 l45 14
3 101 c3 97 2 101 -20 107 -50 13 -99 6 -122 -17z"/>
<path d="M7518 3019 c-27 -15 -24 -75 3 -90 25 -13 69 -6 104 17 19 12 25 25
25 50 l0 34 -57 0 c-32 0 -66 -5 -75 -11z"/>
<path d="M3893 3155 l-33 -14 0 -100 0 -99 31 -11 c51 -18 79 -13 109 17 51
52 50 170 -3 207 -27 19 -62 19 -104 0z"/>
</g>
</svg>
